<?xml version="1.0" encoding="UTF-8"?>
<svg width="475px" height="80px" viewBox="0 0 475 80" version="1.1" xmlns="http://www.w3.org/2000/svg" xmlns:xlink="http://www.w3.org/1999/xlink">
    <!-- Generator: Sketch 43.2 (39069) - http://www.bohemiancoding.com/sketch -->
    <title>logo-full-white</title>
    <desc>Created with Sketch.</desc>
    <defs></defs>
    <g id="Tablet" stroke="none" stroke-width="1" fill="none" fill-rule="evenodd">
        <g id="Booking.com" transform="translate(-146.000000, -432.000000)">
            <g id="logo-full-white" transform="translate(146.000000, 432.000000)">
                <g>
                    <g id="com" transform="translate(300.000000, 17.333333)" fill="#009FE2">
                        <path d="M121.197333,7.28266667 C123.794667,4.16266667 127.397333,1.73333333 131.477333,1.17333333 C135.448,0.622666667 139.868,1.31733333 142.957333,4.044 C144.374667,5.22933333 145.273333,6.876 146.245333,8.42133333 C149.149333,4.336 153.798667,1.48933333 158.821333,1.08266667 C163.294667,0.676 168.332,1.69466667 171.345333,5.28266667 C174.258667,8.74666667 174.870667,13.4626667 174.918667,17.8346667 C174.909333,27.0146667 174.937333,36.2 174.898667,45.38 C171.770667,45.1746667 168.437333,45.9013333 165.476,44.6093333 C163.193333,43.5186667 162.792,40.7106667 162.834667,38.448 C162.834667,31.7506667 162.858667,25.0493333 162.830667,18.352 C162.701333,16.2613333 162.413333,13.5626667 160.252,12.568 C157.458667,11.4386667 154.2,12.54 152.152,14.6106667 C149.436,17.3426667 148.316,21.2893333 148.125333,25.0493333 C148.134667,31.8133333 148.110667,38.5773333 148.144,45.3466667 C144.110667,45.3986667 140.078667,45.356 136.050667,45.3706667 C136.054667,36.8266667 136.045333,28.288 136.054667,19.744 C136.008,17.62 135.826667,15.2666667 134.352,13.5973333 C132.908,11.9133333 130.358667,11.832 128.386667,12.468 C125.632,13.472 123.8,16.0466667 122.728,18.6626667 C121.436,21.7293333 121.221333,25.1013333 121.216,28.388 C121.221333,34.0466667 121.216,39.712 121.221333,45.3706667 C117.274667,45.3706667 113.332,45.3706667 109.386667,45.3653333 C109.381333,30.9 109.381333,16.4333333 109.386667,1.96266667 C112.466667,2.116 115.825333,1.412 118.666667,2.93866667 C120.28,3.79466667 120.757333,5.66533333 121.197333,7.28266667" id="m"></path>
                        <path d="M79.5786667,11.932 C76.8706667,12.6213333 74.532,14.548 73.26,17.0266667 C70.748,22.016 71.2546667,28.832 75.432,32.7946667 C79.24,36.444 85.9653333,36.2146667 89.5866667,32.4013333 C91.9453333,29.952 92.8866667,26.4466667 92.7733333,23.112 C92.7586667,19.4186667 91.208,15.5533333 88.108,13.4053333 C85.668,11.6546667 82.4546667,11.248 79.5786667,11.932 Z M77.6266667,1.36933333 C84.784,0.112 92.6666667,1.77066667 98.0866667,6.78933333 C106.946667,14.836 107.449333,30.1053333 99.4026667,38.888 C90.716,48.4413333 73.7146667,48.4653333 65.084,38.8266667 C57.224,30.1346667 57.5933333,15.1466667 66.1693333,7.06266667 C69.2946667,4.05866667 73.3746667,2.116 77.6266667,1.36933333 L77.6266667,1.36933333 Z" id="ooo"></path>
                        <path d="M22.8346667,7.74133333 C28.9626667,1.60933333 38.5106667,-0.305333333 46.7626667,1.85733333 C49.9533333,2.748 53.3026667,4.24 55.0906667,7.18133333 C56.8706667,10.1093333 55.928,13.6786667 56.1626667,16.9066667 C53.6746667,16.8546667 51.1866667,17.012 48.7146667,16.84 C46.9733333,16.644 45.792,15.1373333 45.2693333,13.5826667 C44.888,12.396 43.572,11.9893333 42.5053333,11.6733333 C38.076,10.6266667 33.0386667,12.5253333 30.608,16.424 C28.2493333,20.1746667 27.9866667,25.1733333 29.8,29.1973333 C31.5933333,33.1573333 35.9173333,35.4626667 40.156,35.5786667 C45.252,35.8453333 49.992,33.0426667 53.392,29.4413333 C55.12,32.34 56.8853333,35.2146667 58.6066667,38.1186667 C50.0346667,48.068 33.1533333,49.2213333 23.48,40.2613333 C14.416,32.076 14.1813333,16.304 22.8346667,7.74133333" id="c"></path>
                        <path d="M5.42666667,31.536 C9.612,30.244 14.3666667,33.564 14.592,37.9373333 C15.0266667,41.7826667 11.928,45.572 8.052,45.8293333 C4.23066667,46.3173333 0.437333333,43.2706667 0.106666667,39.4346667 C-0.396,35.9466667 1.996,32.3733333 5.42666667,31.536" id="dot"></path>
                    </g>
                    <g id="booking" fill="#FFFFFF">
                        <path d="M270.510667,29.772 C267.702667,30.8346667 266.152,33.752 265.678667,36.5746667 C265.009333,40.336 265.488,44.5546667 267.826667,47.6826667 C270.845333,51.7773333 277.916,51.9933333 280.962667,47.8266667 C283.038667,44.8933333 283.138667,41.0813333 282.890667,37.632 C282.641333,34.724 281.474667,31.4893333 278.689333,30.1266667 C276.169333,28.94 273.117333,28.7866667 270.510667,29.772 Z M264.262667,19.612 C270.668,17.052 278.728,17.54 284.033333,22.252 C284.78,20.7933333 286.052,19.564 287.712,19.268 C290.214667,18.8413333 292.764,19.1333333 295.285333,19.048 C295.294667,32.3946667 295.289333,45.736 295.289333,59.0826667 C295.289333,63.9573333 293.821333,68.98 290.438667,72.596 C286.072,77.352 279.465333,79.356 273.16,79.5613333 C267.290667,79.6573333 261.368,78.256 256.221333,75.404 C257.210667,72.9786667 257.985333,70.448 259.230667,68.1333333 C259.856,66.928 261.282667,66.3 262.606667,66.54 C264.693333,66.9186667 266.664,67.7986667 268.782667,68.0653333 C272.494667,68.6213333 276.7,68.544 279.828,66.2053333 C282.201333,64.3973333 282.929333,61.244 282.761333,58.3986667 C278.785333,61.732 273.246667,62.3066667 268.3,61.408 C263.338667,60.4986667 258.848,57.3946667 256.201333,53.108 C252.618667,47.3906667 251.92,40.2253333 253.26,33.7053333 C254.474667,27.6586667 258.412,21.9373333 264.262667,19.612 L264.262667,19.612 Z" id="g"></path>
                        <path d="M219.549333,24.0466667 C222.348,20.8173333 226.370667,18.7213333 230.628,18.316 C235.144,17.8893333 240.142667,18.54 243.653333,21.66 C246.84,24.4386667 248.117333,28.7533333 248.376,32.844 C248.533333,42.7946667 248.228,52.7533333 248.533333,62.6986667 C246.06,62.66 243.582667,62.824 241.118667,62.608 C239.377333,62.484 237.612,61.6653333 236.717333,60.1106667 C235.661333,58.2213333 235.861333,55.9733333 235.846667,53.8826667 C235.842667,47.96 235.876,42.0333333 235.833333,36.1066667 C235.78,33.8626667 235.210667,31.0066667 232.772,30.212 C229.484,29.3333333 225.773333,30.356 223.352,32.7386667 C220.945333,35.0973333 219.917333,38.56 219.826667,41.856 C219.821333,48.8026667 219.830667,55.752 219.826667,62.704 C215.641333,62.708 211.454667,62.7133333 207.269333,62.704 L207.269333,19.172 C210.306667,19.344 213.488,18.6933333 216.406667,19.8026667 C218.209333,20.468 219.098667,22.296 219.549333,24.0466667" id="n"></path>
                        <path d="M191.458667,0.893333333 C195.468,-0.402666667 200.126667,2.5 200.668,6.69066667 C201.466667,10.6853333 198.294667,14.8573333 194.238667,15.1533333 C190.458667,15.6506667 186.670667,12.704 186.269333,8.91066667 C185.709333,5.428 188.048,1.79733333 191.458667,0.893333333 Z M187.650667,19.172 C190.726667,19.3293333 193.913333,18.736 196.888,19.7173333 C199.113333,20.496 200.204,22.9173333 200.198667,25.1466667 C200.232,37.6653333 200.198667,50.184 200.213333,62.704 C196.065333,62.708 191.922667,62.708 187.776,62.704 C187.837333,48.1893333 187.685333,33.6853333 187.650667,19.172 Z" id="i"></path>
                        <path d="M143.645333,2.548 C145.994667,2.56266667 148.348,2.52 150.701333,2.548 C152.222667,2.57733333 153.888,2.90266667 154.969333,4.06533333 C156.174667,5.34133333 156.326667,7.19733333 156.332,8.868 C156.313333,17.172 156.332,25.476 156.317333,33.7813333 C157.997333,33.676 160.273333,34.116 161.297333,32.3986667 C164.177333,28.0026667 167.004,23.5733333 169.88,19.1666667 C174.629333,19.176 179.385333,19.172 184.14,19.172 C180.350667,24.8453333 176.524,30.4906667 172.716,36.1493333 C172.013333,37.2253333 171.185333,38.2106667 170.310667,39.148 C172.046667,40.8613333 172.969333,43.144 174.122667,45.2426667 C177.126667,51.276 180.834667,56.9106667 184.26,62.708 C180.485333,62.66 176.705333,62.7946667 172.930667,62.6453333 C170.717333,62.604 168.626667,61.3733333 167.569333,59.4173333 C165.024,54.9106667 162.722667,50.2613333 160.230667,45.7213333 C159.470667,44.3333333 157.624,44.7786667 156.326667,44.6066667 C156.313333,50.644 156.337333,56.676 156.313333,62.708 C152.093333,62.708 147.874667,62.6986667 143.650667,62.708 C143.636,42.6546667 143.650667,22.6013333 143.645333,2.548" id="k"></path>
                        <path d="M113.632,29.328 C110.030667,30.2986667 107.352,33.4946667 106.514667,37.0586667 C105.237333,42.1106667 106.52,48.372 111.202667,51.2706667 C114.976,53.5666667 120.253333,53.1506667 123.501333,50.104 C126.246667,47.5826667 127.232,43.664 127.050667,40.0426667 C126.926667,36.6373333 125.534667,33.116 122.769333,31.0066667 C120.229333,28.992 116.718667,28.5 113.632,29.328 Z M111.26,18.8173333 C117.56,17.5933333 124.458667,18.5026667 129.834667,22.152 C134.38,25.1186667 137.574667,29.9586667 138.752,35.236 C140.34,42.3106667 138.905333,50.2706667 134.049333,55.8013333 C125.529333,65.7226667 108.269333,65.952 99.4826667,56.2746667 C91.608,47.7306667 91.828,32.9586667 100.090667,24.744 C103.098667,21.688 107.084,19.7026667 111.26,18.8173333 L111.26,18.8173333 Z" id="oo"></path>
                        <path d="M64.848,29.356 C62.1986667,30.132 59.9733333,32.092 58.764,34.556 C56.0893333,40.1106667 57.1173333,48.08 62.7533333,51.4093333 C67.1586667,53.988 73.4973333,52.7306667 76.296,48.3613333 C79.328,43.588 79.1413333,36.7706667 75.516,32.356 C72.9666667,29.3333333 68.5893333,28.2653333 64.848,29.356 Z M62.868,18.7653333 C70.0386667,17.4066667 77.9693333,18.98 83.4853333,23.936 C92.508,31.9053333 93.1106667,47.2853333 85.064,56.14 C76.3573333,65.8373333 59.108,65.828 50.5306667,55.964 C42.2453333,46.6586667 43.4413333,30.2893333 53.6306667,22.8173333 C56.3333333,20.7653333 59.5386667,19.416 62.868,18.7653333 L62.868,18.7653333 Z" id="o"></path>
                        <path d="M13.0933333,36.7133333 C11.8546667,37.4986667 11.648,39.072 11.6146667,40.416 C11.6053333,44.34 11.62,48.2613333 11.62,52.18 C15.236,52.16 18.8573333,52.208 22.4786667,52.1706667 C24.952,52.1213333 27.4773333,50.8066667 28.6453333,48.572 C30.4053333,45.1906667 30.0613333,40.4266667 27.052,37.852 C24.588,35.7853333 21.1866667,36.044 18.1826667,36.0253333 C16.4893333,36.0973333 14.6,35.7426667 13.0933333,36.7133333 Z M12.7533333,13.4173333 C11.7386667,14.312 11.6533333,15.7466667 11.6146667,17.0053333 C11.6053333,20.2386667 11.624,23.468 11.6146667,26.7013333 C14.7626667,26.6866667 17.9106667,26.744 21.0586667,26.6866667 C22.9426667,26.6493333 24.8413333,25.8266667 25.9946667,24.3053333 C28.2666667,21.2053333 28.1373333,16.096 24.8986667,13.704 C22.68,12.0826667 19.8,12.536 17.2253333,12.4653333 C15.724,12.5026667 13.9293333,12.264 12.7533333,13.4173333 Z M0.00933333333,8.88666667 C-0.196,5.50933333 2.884,2.46266667 6.23333333,2.548 C11.3373333,2.548 16.4413333,2.544 21.5453333,2.548 C26.5733333,2.66266667 31.8933333,4.14133333 35.4466667,7.88133333 C40.9293333,13.536 40.6,23.592 34.9493333,29.0173333 C34.2853333,29.6386667 33.5813333,30.208 32.8933333,30.796 C35.8013333,32.256 38.4946667,34.3653333 39.944,37.3506667 C42.5706667,42.712 42.2546667,49.548 38.9106667,54.5333333 C35.232,59.996 28.396,62.3106667 22.0533333,62.4546667 C14.7093333,62.4786667 7.36133333,62.4546667 0.0146666667,62.464 C0.00933333333,44.6066667 0.0186666667,26.7493333 0.00933333333,8.88666667 L0.00933333333,8.88666667 Z" id="b"></path>
                    </g>
                </g>
            </g>
        </g>
    </g>
</svg>