<?xml version="1.0" encoding="UTF-8"?>
<svg width="102px" height="100px" viewBox="0 0 102 100" version="1.1" xmlns="http://www.w3.org/2000/svg" xmlns:xlink="http://www.w3.org/1999/xlink">
    <!-- Generator: Sketch 43.2 (39069) - http://www.bohemiancoding.com/sketch -->
    <title>logo-letter-white</title>
    <desc>Created with Sketch.</desc>
    <defs></defs>
    <g id="Tablet" stroke="none" stroke-width="1" fill="none" fill-rule="evenodd">
        <g id="B." transform="translate(-333.000000, -412.000000)">
            <g id="logo-letter-white" transform="translate(333.000000, 412.000000)">
                <g>
                    <path d="M89.8730973,99.8279646 C83.9513274,99.8925664 78.1138053,95.299646 78.0258407,87.9378761 C77.9483186,81.3481416 83.400885,76.0132743 89.9017699,76.0385841 C96.4479646,76.0619469 101.749204,81.3943363 101.756991,87.9637168 C101.76531,94.5 96.4169912,99.839292 89.8730973,99.8279646 Z" id="dot" fill="#009FE2"></path>
                    <path d="M53.9975221,46.6907965 C54.6330973,47.0352212 55.1380531,47.319646 55.6534513,47.5831858 C62.4665487,51.1012389 66.5357522,56.7226549 67.9506195,64.1720354 C69.460708,72.1277876 68.2428319,79.6470796 63.439823,86.3384071 C59.5566372,91.7516814 54.1145133,94.9578761 47.840177,96.860177 C43.8021239,98.0830088 39.6541593,98.6700885 35.4369912,98.6771681 C24.0231858,98.6932743 12.6083186,98.6815929 1.19327434,98.6815929 L0.217876106,98.6815929 C0.197168142,98.260708 0.166017699,97.9118584 0.166017699,97.5649558 C0.152035398,68.4713274 0.136814159,39.3752212 0.130088496,10.2831858 C0.128849558,4.94141593 4.83486726,0.194867257 10.1568142,0.18460177 C18.8488496,0.164955752 27.5444248,0.0320353982 36.2329204,0.220530973 C43.4642478,0.378761062 50.2624779,2.22672566 56.0373451,6.86460177 C60.7630088,10.6587611 63.540531,15.5925664 64.4139823,21.5957522 C65.3847788,28.2711504 64.2024779,34.4819469 60.4520354,40.1472566 C58.9299115,42.4470796 56.8984071,44.2523894 54.8088496,46.0021239 C54.5835398,46.1915044 54.3617699,46.3835398 53.9975221,46.6907965 Z M19.3092035,81.8033628 C19.4789381,81.8518584 19.5414159,81.8870796 19.6014159,81.8870796 C25.5012389,81.8890265 31.4069027,82.060177 37.2966372,81.8332743 C41.7968142,81.6624779 45.4339823,79.6053097 47.4725664,75.3893805 C48.9842478,72.2619469 49.2755752,68.919823 48.6584071,65.5171681 C47.9716814,61.7359292 46.0856637,58.7612389 42.619823,56.9212389 C40.5230088,55.8093805 38.2615929,55.3541593 35.9051327,55.3469027 C32.3975221,55.3376991 28.8909735,55.3447788 25.3837168,55.3447788 C21.5467257,55.3447788 19.3115044,57.4644248 19.2757522,61.3359292 C19.2143363,67.9559292 19.2515044,74.5778761 19.2515044,81.1978761 C19.2515044,81.3897345 19.2872566,81.5815929 19.3092035,81.8033628 Z M19.279115,39.9461947 C24.660177,39.9461947 29.8723894,40.059469 35.0764602,39.9046018 C38.3562832,39.8051327 41.160177,38.4368142 43.0879646,35.6261947 C44.9913274,32.8523894 45.4053097,29.7343363 45.2525664,26.459115 C45.0038938,21.1058407 40.8711504,16.8269027 35.5306195,16.6037168 C32.2589381,16.4672566 28.9776991,16.4348673 25.7024779,16.4938053 C21.3153982,16.5746903 19.2707965,18.7624779 19.2778761,23.139823 C19.2858407,28.319646 19.279115,33.499469 19.279115,38.679292 C19.279115,39.0654867 19.279115,39.4492035 19.279115,39.9461947 Z" id="b" fill="#FFFFFF"></path>
                </g>
            </g>
        </g>
    </g>
</svg>