<?xml version="1.0" encoding="UTF-8"?>
<svg width="214px" height="36px" viewBox="0 0 214 36" version="1.1" xmlns="http://www.w3.org/2000/svg" xmlns:xlink="http://www.w3.org/1999/xlink">
    <!-- Generator: Sketch 43.2 (39069) - http://www.bohemiancoding.com/sketch -->
    <title>logo-full</title>
    <desc>Created with Sketch.</desc>
    <defs></defs>
    <g id="Tablet" stroke="none" stroke-width="1" fill="none" fill-rule="evenodd">
        <g id="Above-the-fold---variant-2" transform="translate(-32.000000, -32.000000)">
            <g id="logo-full" transform="translate(32.000000, 32.000000)">
                <g>
                    <g id="com" transform="translate(134.873950, 7.800000)" fill="#009FE2">
                        <path d="M54.4878768,3.2772 C55.6555854,1.8732 57.2752717,0.78 59.1095574,0.528 C60.8946891,0.2802 62.8818319,0.5928 64.2707339,1.8198 C64.9079384,2.3532 65.3119608,3.0942 65.7489524,3.7896 C67.0545322,1.9512 69.1447787,0.6702 71.4028683,0.4872 C73.4139888,0.3042 75.6786723,0.7626 77.0334062,2.3772 C78.3431821,3.936 78.6183249,6.0582 78.6399048,8.0256 C78.6357087,12.1566 78.6482969,16.29 78.6309132,20.421 C77.2246275,20.3286 75.726028,20.6556 74.3946723,20.0742 C73.3684314,19.5834 73.188,18.3198 73.2071821,17.3016 C73.2071821,14.2878 73.217972,11.2722 73.2053838,8.2584 C73.1472381,7.3176 73.0177591,6.1032 72.0460672,5.6556 C70.7902409,5.1474 69.3252101,5.643 68.4044706,6.5748 C67.1834118,7.8042 66.6798824,9.5802 66.5941625,11.2722 C66.5983585,14.316 66.5875686,17.3598 66.6025546,20.406 C64.7892493,20.4294 62.9765434,20.4102 61.1656359,20.4168 C61.1674342,16.572 61.1632381,12.7296 61.1674342,8.8848 C61.1464538,7.929 61.06493,6.87 60.4019496,6.1188 C59.7527563,5.361 58.6066275,5.3244 57.720056,5.6106 C56.4816134,6.0624 55.6579832,7.221 55.1760336,8.3982 C54.5951765,9.7782 54.4986667,11.2956 54.4962689,12.7746 C54.4986667,15.321 54.4962689,17.8704 54.4986667,20.4168 C52.7243249,20.4168 50.9517815,20.4168 49.1780392,20.4144 C49.1756415,13.905 49.1756415,7.395 49.1780392,0.8832 C50.5627451,0.9522 52.0727339,0.6354 53.3501401,1.3224 C54.0754622,1.7076 54.2900616,2.5494 54.4878768,3.2772" id="m"></path>
                        <path d="M35.7769636,5.3694 C34.5595014,5.6796 33.508084,6.5466 32.9362185,7.662 C31.8068739,9.9072 32.0346611,12.9744 33.9127059,14.7576 C35.6247059,16.3998 38.6482801,16.2966 40.2763585,14.5806 C41.3367675,13.4784 41.759972,11.901 41.7090196,10.4004 C41.7024258,8.7384 41.0052773,6.999 39.6115798,6.0324 C38.514605,5.2446 37.0699552,5.0616 35.7769636,5.3694 Z M34.8993838,0.6162 C38.1171765,0.0504 41.6610644,0.7968 44.0977871,3.0552 C48.0810644,6.6762 48.3070532,13.5474 44.6894342,17.4996 C40.784084,21.7986 33.1406275,21.8094 29.2604538,17.472 C25.7267563,13.5606 25.8928011,6.816 29.7483978,3.1782 C31.1534846,1.8264 32.9877703,0.9522 34.8993838,0.6162 L34.8993838,0.6162 Z" id="ooo"></path>
                        <path d="M10.2660056,3.4836 C13.0210308,0.7242 17.313619,-0.1374 21.0235518,0.8358 C22.4580112,1.2366 23.9638039,1.908 24.7676527,3.2316 C25.5679048,4.5492 25.1441008,6.1554 25.2496022,7.608 C24.1310476,7.5846 23.012493,7.6554 21.9011317,7.578 C21.1182633,7.4898 20.5871597,6.8118 20.3521793,6.1122 C20.1807395,5.5782 19.5890924,5.3952 19.1095406,5.253 C17.1182017,4.782 14.8535182,5.6364 13.7607395,7.3908 C12.7003305,9.0786 12.5822409,11.328 13.397479,13.1388 C14.2037255,14.9208 16.1477087,15.9582 18.0533277,16.0104 C20.3443866,16.1304 22.475395,14.8692 24.0039664,13.2486 C24.7808403,14.553 25.5744986,15.8466 26.3483754,17.1534 C22.494577,21.6306 14.90507,22.1496 10.5561345,18.1176 C6.48114286,14.4342 6.37564146,7.3368 10.2660056,3.4836" id="c"></path>
                        <path d="M2.43971989,14.1912 C4.32136134,13.6098 6.45896359,15.1038 6.56026891,17.0718 C6.75568627,18.8022 5.36258824,20.5074 3.62001681,20.6232 C1.90202241,20.8428 0.196616246,19.4718 0.0479551821,17.7456 C-0.178033613,16.176 0.897361345,14.568 2.43971989,14.1912" id="dot"></path>
                    </g>
                    <g id="booking" fill="#003580">
                        <path d="M121.61614,13.3974 C120.35372,13.8756 119.656571,15.1884 119.44377,16.4586 C119.142852,18.1512 119.35805,20.0496 120.409468,21.4572 C121.766599,23.2998 124.945429,23.397 126.315148,21.522 C127.248476,20.202 127.293434,18.4866 127.181938,16.9344 C127.069843,15.6258 126.545333,14.1702 125.293104,13.557 C124.160162,13.023 122.788045,12.954 121.61614,13.3974 Z M118.807165,8.8254 C121.686874,7.6734 125.310487,7.893 127.695658,10.0134 C128.031345,9.357 128.60321,8.8038 129.349513,8.6706 C130.474661,8.4786 131.62079,8.61 132.754331,8.5716 C132.758527,14.5776 132.756129,20.5812 132.756129,26.5872 C132.756129,28.7808 132.096146,31.041 130.575367,32.6682 C128.612202,34.8084 125.641978,35.7102 122.807227,35.8026 C120.168493,35.8458 117.505782,35.2152 115.191944,33.9318 C115.636728,32.8404 115.985003,31.7016 116.54488,30.66 C116.826017,30.1176 117.467417,29.835 118.062661,29.943 C119.000784,30.1134 119.886756,30.5094 120.839266,30.6294 C122.508106,30.8796 124.398739,30.8448 125.805025,29.7924 C126.872028,28.9788 127.199322,27.5598 127.123793,26.2794 C125.336263,27.7794 122.84619,28.038 120.622269,27.6336 C118.391754,27.2244 116.37284,25.8276 115.182952,23.8986 C113.572258,21.3258 113.258151,18.1014 113.860588,15.1674 C114.406678,12.4464 116.176824,9.8718 118.807165,8.8254 L118.807165,8.8254 Z" id="g"></path>
                        <path d="M98.7049524,10.821 C99.9631765,9.3678 101.771686,8.4246 103.685697,8.2422 C105.716,8.0502 107.9633,8.343 109.541625,9.747 C110.974286,10.9974 111.548549,12.939 111.66484,14.7798 C111.735574,19.2576 111.598303,23.739 111.735574,28.2144 C110.623613,28.197 109.509854,28.2708 108.40209,28.1736 C107.619221,28.1178 106.825563,27.7494 106.423339,27.0498 C105.948583,26.1996 106.038499,25.188 106.031905,24.2472 C106.030106,21.582 106.045092,18.915 106.02591,16.248 C106.001933,15.2382 105.745972,13.953 104.649597,13.5954 C103.171378,13.2 101.503137,13.6602 100.414555,14.7324 C99.3325658,15.7938 98.8703978,17.352 98.8296359,18.8352 C98.8272381,21.9612 98.8314342,25.0884 98.8296359,28.2168 C96.9479944,28.2186 95.0657535,28.221 93.184112,28.2168 L93.184112,8.6274 C94.5496359,8.7048 95.9798992,8.412 97.2920728,8.9112 C98.1025154,9.2106 98.5023417,10.0332 98.7049524,10.821" id="n"></path>
                        <path d="M86.0759552,0.402 C87.8784706,-0.1812 89.9729132,1.125 90.2162857,3.0108 C90.5753501,4.8084 89.1492829,6.6858 87.3257871,6.819 C85.6263754,7.0428 83.9233669,5.7168 83.7429356,4.0098 C83.4911709,2.4426 84.5425882,0.8088 86.0759552,0.402 Z M84.3639552,8.6274 C85.7468627,8.6982 87.1795238,8.4312 88.5168739,8.8728 C89.5173389,9.2232 90.0076807,10.3128 90.0052829,11.316 C90.0202689,16.9494 90.0052829,22.5828 90.0118768,28.2168 C88.1470196,28.2186 86.2845602,28.2186 84.4203025,28.2168 C84.4478768,21.6852 84.3795406,15.1584 84.3639552,8.6274 Z" id="i"></path>
                        <path d="M64.5800448,1.1466 C65.6362577,1.1532 66.6942689,1.134 67.7522801,1.1466 C68.4362409,1.1598 69.1849412,1.3062 69.6710868,1.8294 C70.2129804,2.4036 70.2813165,3.2388 70.2837143,3.9906 C70.2753221,7.7274 70.2837143,11.4642 70.2771204,15.2016 C71.0324146,15.1542 72.0556583,15.3522 72.516028,14.5794 C73.8108179,12.6012 75.0816303,10.608 76.3746218,8.625 C78.5098263,8.6292 80.648028,8.6274 82.7856303,8.6274 C81.0820224,11.1804 79.3616303,13.7208 77.6496303,16.2672 C77.3337255,16.7514 76.9614734,17.1948 76.5682409,17.6166 C77.3487115,18.3876 77.7635238,19.4148 78.2820392,20.3592 C79.632577,23.0742 81.299619,25.6098 82.8395798,28.2186 C81.1425658,28.197 79.4431541,28.2576 77.7461401,28.1904 C76.75107,28.1718 75.8111485,27.618 75.3357927,26.7378 C74.1914622,24.7098 73.1568291,22.6176 72.0364762,20.5746 C71.6947955,19.95 70.8645714,20.1504 70.2813165,20.073 C70.2753221,22.7898 70.286112,25.5042 70.2753221,28.2186 C68.3780952,28.2186 66.4814678,28.2144 64.5824426,28.2186 C64.5758487,19.1946 64.5824426,10.1706 64.5800448,1.1466" id="k"></path>
                        <path d="M51.0866555,13.1976 C49.4675686,13.6344 48.2632941,15.0726 47.8868459,16.6764 C47.3125826,18.9498 47.8892437,21.7674 49.9944762,23.0718 C51.6908908,24.105 54.0634734,23.9178 55.5237087,22.5468 C56.7579552,21.4122 57.2009412,19.6488 57.1194174,18.0192 C57.0636695,16.4868 56.4378543,14.9022 55.1946162,13.953 C54.0526835,13.0464 52.4743585,12.825 51.0866555,13.1976 Z M50.0202521,8.4678 C52.852605,7.917 55.9541064,8.3262 58.3710476,9.9684 C60.4145378,11.3034 61.8507955,13.4814 62.3801008,15.8562 C63.0940336,19.0398 62.4490364,22.6218 60.2658768,25.1106 C56.4354566,29.5752 48.6757087,29.6784 44.7254006,25.3236 C41.1851092,21.4788 41.2840168,14.8314 44.9987451,11.1348 C46.3510812,9.7596 48.1428067,8.8662 50.0202521,8.4678 L50.0202521,8.4678 Z" id="oo"></path>
                        <path d="M29.1543529,13.2102 C27.9632661,13.5594 26.9628011,14.4414 26.4191092,15.5502 C25.2166331,18.0498 25.6788011,21.636 28.2126331,23.1342 C30.1931821,24.2946 33.0429188,23.7288 34.3011429,21.7626 C35.6642689,19.6146 35.5803473,16.5468 33.9504706,14.5602 C32.8043417,13.2 30.836381,12.7194 29.1543529,13.2102 Z M28.2641849,8.4444 C31.487972,7.833 35.0534398,8.541 37.5333221,10.7712 C41.5897311,14.3574 41.8606779,21.2784 38.2430588,25.263 C34.3287171,29.6268 26.5737647,29.6226 22.7175686,25.1838 C18.9926499,20.9964 19.5303473,13.6302 24.1112661,10.2678 C25.3263305,9.3444 26.7673838,8.7372 28.2641849,8.4444 L28.2641849,8.4444 Z" id="o"></path>
                        <path d="M5.8864986,16.521 C5.32961905,16.8744 5.23670588,17.5824 5.22171989,18.1872 C5.21752381,19.953 5.22411765,21.7176 5.22411765,23.481 C6.84979832,23.472 8.47787675,23.4936 10.1059552,23.4768 C11.217916,23.4546 12.3532549,22.863 12.8783641,21.8574 C13.6696246,20.3358 13.5149692,18.192 12.1620336,17.0334 C11.0542689,16.1034 9.52509804,16.2198 8.17456022,16.2114 C7.41327171,16.2438 6.56386555,16.0842 5.8864986,16.521 Z M5.73364146,6.0378 C5.27746779,6.4404 5.23910364,7.086 5.22171989,7.6524 C5.21752381,9.1074 5.22591597,10.5606 5.22171989,12.0156 C6.6369972,12.009 8.05227451,12.0348 9.46755182,12.009 C10.3145602,11.9922 11.1681625,11.622 11.6866779,10.9374 C12.7081232,9.5424 12.6499776,7.2432 11.1939384,6.1668 C10.1964706,5.4372 8.90168067,5.6412 7.74416246,5.6094 C7.06919328,5.6262 6.26234734,5.5188 5.73364146,6.0378 Z M0.00419607843,3.999 C-0.0881176471,2.4792 1.29658824,1.1082 2.80238095,1.1466 C5.09703641,1.1466 7.39169188,1.1448 9.68634734,1.1466 C11.9468347,1.1982 14.3385994,1.8636 15.9361064,3.5466 C18.4010028,6.0912 18.2529412,10.6164 15.7125154,13.0578 C15.4139944,13.3374 15.0974902,13.5936 14.7881793,13.8582 C16.0955574,14.5152 17.3064258,15.4644 17.9580168,16.8078 C19.1389132,19.2204 18.9968459,22.2966 17.493451,24.54 C15.8395966,26.9982 12.7662689,28.0398 9.91473389,28.1046 C6.61301961,28.1154 3.309507,28.1046 0.00659383754,28.1088 C0.00419607843,20.073 0.00839215686,12.0372 0.00419607843,3.999 L0.00419607843,3.999 Z" id="b"></path>
                    </g>
                </g>
            </g>
        </g>
    </g>
</svg>